<svg width="356" height="105" viewBox="0 0 356 105" fill="none" xmlns="http://www.w3.org/2000/svg">
<path d="M1.80469 9.99219C2.63802 10.0182 3.36719 10.0312 3.99219 10.0312C4.61719 10.0052 5.125 9.99219 5.51562 9.99219H6.64844C6.9349 9.96615 7.28646 9.95312 7.70312 9.95312C8.06771 9.95312 8.51042 9.95312 9.03125 9.95312C9.55208 9.95312 10.151 9.96615 10.8281 9.99219C11.0365 10.7214 11.2708 11.4375 11.5312 12.1406C11.8177 12.8177 12.0651 13.4297 12.2734 13.9766C12.5339 14.6276 12.7943 15.2396 13.0547 15.8125C13.3151 16.3854 13.6276 17.0755 13.9922 17.8828C14.3047 18.5599 14.6823 19.3932 15.125 20.3828C15.5677 21.3464 16.0885 22.4531 16.6875 23.7031C16.974 22.8958 17.2344 22.1536 17.4688 21.4766C17.7292 20.7995 17.9505 20.2135 18.1328 19.7188C18.3411 19.1458 18.5104 18.625 18.6406 18.1562C18.7708 17.6875 18.9141 17.1146 19.0703 16.4375C19.2005 15.8646 19.3438 15.1745 19.5 14.3672C19.6823 13.5599 19.8646 12.6224 20.0469 11.5547C20.8021 11.5547 21.4792 11.5547 22.0781 11.5547C22.6771 11.5547 23.1979 11.5417 23.6406 11.5156C24.1354 11.5156 24.5781 11.5026 24.9688 11.4766C25.3854 11.4766 25.9453 11.4505 26.6484 11.3984C27.2474 11.3464 28.0417 11.3073 29.0312 11.2812C30.0469 11.2292 31.2969 11.1641 32.7812 11.0859C32.2344 11.4766 31.7917 11.8672 31.4531 12.2578C31.1406 12.6224 30.8932 12.9479 30.7109 13.2344C30.5026 13.5729 30.3724 13.8984 30.3203 14.2109C30.2682 14.4714 30.2161 15.0703 30.1641 16.0078C30.138 16.9453 30.099 18.0651 30.0469 19.3672C30.0208 20.6432 29.9948 22.0104 29.9688 23.4688C29.9688 24.9271 29.9818 26.3073 30.0078 27.6094C30.0339 28.9115 30.0729 30.0443 30.125 31.0078C30.2031 31.9453 30.3073 32.5443 30.4375 32.8047C30.6198 33.1172 30.8672 33.4818 31.1797 33.8984C31.4661 34.263 31.8307 34.6797 32.2734 35.1484C32.7422 35.6172 33.3542 36.138 34.1094 36.7109C32.9115 36.763 31.9089 36.8021 31.1016 36.8281C30.3203 36.8542 29.6693 36.8802 29.1484 36.9062C28.5495 36.9323 28.0677 36.9453 27.7031 36.9453C27.3125 36.9453 26.7786 36.9583 26.1016 36.9844C25.5026 37.0104 24.7083 37.0495 23.7188 37.1016C22.7292 37.1276 21.4531 37.1797 19.8906 37.2578C20.2552 36.8411 20.5938 36.4245 20.9062 36.0078C21.2188 35.5911 21.4792 35.2135 21.6875 34.875C21.9479 34.4844 22.1693 34.1068 22.3516 33.7422C22.5339 33.2474 22.6771 32.349 22.7812 31.0469C22.8854 29.9271 22.9635 28.3255 23.0156 26.2422C23.0677 24.1328 23.0677 21.3073 23.0156 17.7656C22.5208 18.5729 22.0781 19.3802 21.6875 20.1875C21.3229 20.9688 20.9974 21.6849 20.7109 22.3359C20.3984 23.0911 20.112 23.8203 19.8516 24.5234C19.5911 25.2526 19.3177 26.0599 19.0312 26.9453C18.7708 27.7005 18.4583 28.599 18.0938 29.6406C17.7552 30.6823 17.3646 31.8281 16.9219 33.0781L15.4375 33.1562C15.2292 32.1146 15.0208 31.1771 14.8125 30.3438C14.6042 29.4844 14.3958 28.7552 14.1875 28.1562C13.9531 27.4531 13.7188 26.8281 13.4844 26.2812C13.224 25.7344 12.9375 25.1224 12.625 24.4453C12.3385 23.8724 11.987 23.1953 11.5703 22.4141C11.1797 21.6328 10.724 20.7604 10.2031 19.7969C9.94271 22.4531 9.78646 24.6146 9.73438 26.2812C9.68229 27.9219 9.68229 29.1979 9.73438 30.1094C9.78646 31.2031 9.86458 31.9974 9.96875 32.4922C10.125 32.9349 10.3724 33.4297 10.7109 33.9766C10.9974 34.4453 11.388 35.0052 11.8828 35.6562C12.4036 36.2812 13.0677 36.9844 13.875 37.7656C13.3021 37.7656 12.7031 37.7656 12.0781 37.7656C11.4531 37.7656 10.8802 37.7786 10.3594 37.8047C9.73438 37.8307 9.1224 37.8438 8.52344 37.8438C7.89844 37.8698 7.16927 37.9089 6.33594 37.9609C5.60677 38.013 4.73438 38.0651 3.71875 38.1172C2.70312 38.1693 1.53125 38.2604 0.203125 38.3906C0.776042 38.026 1.24479 37.6745 1.60938 37.3359C1.97396 36.9714 2.26042 36.6458 2.46875 36.3594C2.72917 36.0208 2.92448 35.6823 3.05469 35.3438C3.13281 35.1354 3.19792 34.6797 3.25 33.9766C3.32812 33.2734 3.39323 32.4141 3.44531 31.3984C3.52344 30.3828 3.57552 29.25 3.60156 28C3.65365 26.75 3.69271 25.487 3.71875 24.2109C3.77083 22.9089 3.8099 21.6458 3.83594 20.4219C3.86198 19.1719 3.875 18.0521 3.875 17.0625C3.90104 16.0469 3.91406 15.2005 3.91406 14.5234C3.91406 13.8464 3.91406 13.4167 3.91406 13.2344C3.83594 12.8438 3.71875 12.4531 3.5625 12.0625C3.43229 11.724 3.22396 11.3724 2.9375 11.0078C2.65104 10.6432 2.27344 10.3047 1.80469 9.99219ZM34.3047 20.0312C34.9818 20.1615 35.5677 20.2656 36.0625 20.3438C36.5833 20.3958 37.026 20.4479 37.3906 20.5C37.8073 20.5521 38.1719 20.5911 38.4844 20.6172C38.7969 20.6432 39.1615 20.6693 39.5781 20.6953C40.2812 20.7214 41.2708 20.7214 42.5469 20.6953C41.7917 20.6432 41.1927 20.8385 40.75 21.2812C40.3333 21.6979 40.0208 22.1797 39.8125 22.7266C39.5521 23.3776 39.4089 24.1328 39.3828 24.9922C39.3307 26.138 39.3568 27.1797 39.4609 28.1172C39.5911 29.0286 39.8125 29.8099 40.125 30.4609C40.4635 31.0859 40.9062 31.5547 41.4531 31.8672C42 32.1536 42.7031 32.2318 43.5625 32.1016C44.4219 31.9714 45.0729 31.6719 45.5156 31.2031C45.9844 30.7083 46.3229 30.1094 46.5312 29.4062C46.7396 28.6771 46.8568 27.8568 46.8828 26.9453C46.9349 26.0339 46.974 25.0833 47 24.0938C47 23.1042 46.987 22.401 46.9609 21.9844C46.9609 21.5417 46.9479 21.2552 46.9219 21.125C46.8958 20.9948 46.8568 20.9427 46.8047 20.9688C46.7526 20.9688 46.6875 20.9036 46.6094 20.7734C46.5573 20.6693 46.4792 20.5651 46.375 20.4609C46.2969 20.3568 46.1927 20.2396 46.0625 20.1094C45.9323 19.9531 45.7891 19.7969 45.6328 19.6406C46.3099 19.6667 46.9089 19.6927 47.4297 19.7188C47.9766 19.7188 48.4323 19.7318 48.7969 19.7578C49.2135 19.7839 49.5781 19.8099 49.8906 19.8359C50.1771 19.862 50.5547 19.901 51.0234 19.9531C51.4141 20.0052 51.9219 20.0573 52.5469 20.1094C53.1719 20.1615 53.9141 20.2396 54.7734 20.3438C54.1745 20.474 53.6927 20.6693 53.3281 20.9297C52.9635 21.1901 52.6771 21.4505 52.4688 21.7109C52.2344 21.9974 52.0651 22.3099 51.9609 22.6484C51.8828 23.0911 51.8828 23.7682 51.9609 24.6797C52.013 25.487 52.1432 26.5938 52.3516 28C52.5599 29.4062 52.8854 31.2552 53.3281 33.5469L50.2422 35.3828L49.6172 30.1875C48.862 31.4635 48.0547 32.4531 47.1953 33.1562C46.362 33.8333 45.5807 34.3281 44.8516 34.6406C43.9922 35.0052 43.1589 35.2135 42.3516 35.2656C41.2839 35.2656 40.3594 35.2005 39.5781 35.0703C38.8229 34.9141 38.1719 34.7188 37.625 34.4844C37.0781 34.25 36.6354 33.9896 36.2969 33.7031C35.9844 33.3906 35.75 33.0781 35.5938 32.7656C35.2292 32.1146 35.0339 31.2812 35.0078 30.2656C34.9818 29.224 35.0208 28.1953 35.125 27.1797C35.2292 26.138 35.3464 25.1875 35.4766 24.3281C35.6068 23.4688 35.6458 22.8828 35.5938 22.5703C35.5417 22.3359 35.4635 22.0755 35.3594 21.7891C35.2552 21.5547 35.125 21.2943 34.9688 21.0078C34.8125 20.6953 34.5911 20.3698 34.3047 20.0312ZM56.5703 33.7031C56.7526 32.8438 56.8828 32.0885 56.9609 31.4375C57.0651 30.7604 57.1432 30.2005 57.1953 29.7578C57.2474 29.237 57.2734 28.7943 57.2734 28.4297C57.2474 27.987 57.2214 27.4661 57.1953 26.8672C57.1953 26.2422 57.1693 25.6302 57.1172 25.0312C57.0911 24.4062 57.0521 23.8594 57 23.3906C56.9479 22.8958 56.8828 22.5443 56.8047 22.3359C56.7005 22.1276 56.5573 21.9062 56.375 21.6719C56.0104 21.2292 55.4766 20.7995 54.7734 20.3828C55.3724 20.2526 55.8802 20.1484 56.2969 20.0703C56.7396 19.9661 57.1042 19.875 57.3906 19.7969C57.7031 19.6927 57.9766 19.6016 58.2109 19.5234C58.4193 19.4453 58.6667 19.3672 58.9531 19.2891C59.1875 19.237 59.474 19.1719 59.8125 19.0938C60.151 19.0156 60.5417 18.9245 60.9844 18.8203L60.8672 22.375C61.7005 21.3854 62.5469 20.6432 63.4062 20.1484C64.2656 19.6536 65.0729 19.3021 65.8281 19.0938C66.6875 18.8333 67.5339 18.7031 68.3672 18.7031C69.4089 18.7552 70.3724 18.9245 71.2578 19.2109C72.1693 19.4974 72.9505 19.8359 73.6016 20.2266C74.2786 20.5911 74.8255 20.9818 75.2422 21.3984C75.6589 21.8151 75.9062 22.1797 75.9844 22.4922C76.2969 23.5078 76.375 24.4453 76.2188 25.3047C76.0625 26.138 75.8542 26.9583 75.5938 27.7656C75.3594 28.5469 75.151 29.3281 74.9688 30.1094C74.8125 30.8906 74.8776 31.737 75.1641 32.6484C75.2682 32.8828 75.3724 33.1172 75.4766 33.3516C75.5807 33.5599 75.7109 33.7682 75.8672 33.9766C76.0234 34.1849 76.2057 34.3542 76.4141 34.4844C76.1276 34.4583 75.8411 34.4453 75.5547 34.4453C75.2682 34.4193 75.0078 34.3932 74.7734 34.3672C74.487 34.3411 74.2266 34.3151 73.9922 34.2891C73.7318 34.263 73.3802 34.25 72.9375 34.25C72.1823 34.25 71.0104 34.2891 69.4219 34.3672C69.6562 33.8203 69.8385 33.3646 69.9688 33C70.125 32.6094 70.2552 32.2969 70.3594 32.0625C70.4635 31.776 70.5417 31.5547 70.5938 31.3984C70.9062 30.6432 71.0885 29.7839 71.1406 28.8203C71.2188 27.8568 71.1536 26.8802 70.9453 25.8906C70.8672 25.5521 70.737 25.1484 70.5547 24.6797C70.3724 24.2109 70.125 23.7552 69.8125 23.3125C69.526 22.8698 69.1745 22.4922 68.7578 22.1797C68.3672 21.8672 67.9115 21.6849 67.3906 21.6328C66.8698 21.5807 66.2839 21.7109 65.6328 22.0234C65.0078 22.3359 64.3307 22.9089 63.6016 23.7422C63.0547 24.4453 62.625 25.3047 62.3125 26.3203C62.026 27.1797 61.8307 28.2604 61.7266 29.5625C61.6224 30.8385 61.7786 32.3359 62.1953 34.0547C61.8307 34.0026 61.4922 33.9766 61.1797 33.9766C60.8672 33.9505 60.6068 33.9245 60.3984 33.8984C60.138 33.8724 59.9036 33.8464 59.6953 33.8203C59.4609 33.8203 59.2005 33.8073 58.9141 33.7812C58.6536 33.7812 58.3281 33.7812 57.9375 33.7812C57.5469 33.7552 57.0911 33.7292 56.5703 33.7031ZM100.633 24.1328C100.32 24.0807 99.9297 24.0417 99.4609 24.0156C99.0182 23.9896 98.5885 23.9766 98.1719 23.9766C97.7031 23.9766 97.2083 23.9896 96.6875 24.0156C96.1406 24.0417 95.5938 24.0677 95.0469 24.0938C94.5781 24.1198 94.0443 24.1589 93.4453 24.2109C92.8724 24.237 92.3125 24.276 91.7656 24.3281C91.974 24.224 92.1562 24.0807 92.3125 23.8984C92.4948 23.7161 92.651 23.5339 92.7812 23.3516C92.9115 23.1432 93.0286 22.9219 93.1328 22.6875C93.263 22.2969 93.25 21.8281 93.0938 21.2812C92.9375 20.7083 92.651 20.1875 92.2344 19.7188C91.8438 19.25 91.3359 18.8854 90.7109 18.625C90.112 18.3385 89.4479 18.2734 88.7188 18.4297C87.9375 18.612 87.2344 18.8854 86.6094 19.25C86.0104 19.6146 85.5026 20.1224 85.0859 20.7734C84.6953 21.3984 84.4089 22.1797 84.2266 23.1172C84.0703 24.0286 84.0312 25.1224 84.1094 26.3984C84.2135 27.987 84.474 29.25 84.8906 30.1875C85.3073 31.125 85.8151 31.8281 86.4141 32.2969C87.013 32.7656 87.6641 33.0521 88.3672 33.1562C89.0964 33.2344 89.8125 33.2344 90.5156 33.1562C91.0104 33.0521 91.4661 32.8307 91.8828 32.4922C92.2214 32.2057 92.5339 31.7891 92.8203 31.2422C93.1068 30.6953 93.237 29.9401 93.2109 28.9766L97.9766 28.7812C97.4297 30.3177 96.7656 31.5417 95.9844 32.4531C95.2031 33.3385 94.4479 34.0286 93.7188 34.5234C92.8594 35.0964 92 35.487 91.1406 35.6953C90.0729 35.8776 89.1224 35.9557 88.2891 35.9297C87.4557 35.8776 86.7005 35.7474 86.0234 35.5391C85.3464 35.3307 84.7214 35.0703 84.1484 34.7578C83.5755 34.4453 83.0286 34.1068 82.5078 33.7422C82.1693 33.5078 81.7917 33.1172 81.375 32.5703C80.9583 32.0234 80.5677 31.3724 80.2031 30.6172C79.8385 29.8359 79.5391 28.9766 79.3047 28.0391C79.0703 27.1016 78.9792 26.138 79.0312 25.1484C79.0833 24.1328 79.3177 23.1172 79.7344 22.1016C80.151 21.0859 80.8151 20.1094 81.7266 19.1719C83.1068 17.7656 84.5781 16.8542 86.1406 16.4375C87.7292 15.9948 89.2266 15.8776 90.6328 16.0859C92.0391 16.2682 93.2891 16.6719 94.3828 17.2969C95.4766 17.9219 96.2448 18.599 96.6875 19.3281C97.1302 20.0573 97.4557 20.6172 97.6641 21.0078C97.8984 21.3724 98.0677 21.6589 98.1719 21.8672C98.3021 22.0495 98.4062 22.1927 98.4844 22.2969C98.5885 22.375 98.7318 22.4922 98.9141 22.6484C99.0443 22.7786 99.2005 22.9219 99.3828 23.0781C99.5391 23.2083 99.7214 23.3646 99.9297 23.5469C100.138 23.7292 100.372 23.9245 100.633 24.1328ZM99.8516 8.39062C100.451 8.49479 100.997 8.57292 101.492 8.625C101.987 8.65104 102.404 8.67708 102.742 8.70312C103.133 8.72917 103.471 8.74219 103.758 8.74219C104.148 8.71615 104.604 8.67708 105.125 8.625C105.568 8.57292 106.102 8.50781 106.727 8.42969C107.378 8.35156 108.12 8.2474 108.953 8.11719C108.562 8.32552 108.237 8.53385 107.977 8.74219C107.716 8.92448 107.508 9.11979 107.352 9.32812C107.169 9.5625 107.026 9.78385 106.922 9.99219C106.792 10.3307 106.648 11.0339 106.492 12.1016C106.336 13.013 106.141 14.3672 105.906 16.1641C105.698 17.9609 105.424 20.3958 105.086 23.4688C106.023 22.5312 106.909 21.8281 107.742 21.3594C108.602 20.8646 109.357 20.513 110.008 20.3047C110.763 20.0703 111.466 19.9531 112.117 19.9531C112.924 20.0312 113.745 20.2917 114.578 20.7344C115.438 21.151 116.232 21.6458 116.961 22.2188C117.716 22.7917 118.367 23.4036 118.914 24.0547C119.487 24.7057 119.891 25.2786 120.125 25.7734C120.281 26.112 120.359 26.5547 120.359 27.1016C120.359 27.6224 120.307 28.1953 120.203 28.8203C120.099 29.4453 119.956 30.0833 119.773 30.7344C119.591 31.3854 119.409 31.9974 119.227 32.5703C119.07 33.1432 118.927 33.651 118.797 34.0938C118.667 34.5104 118.589 34.8099 118.562 34.9922C118.51 35.3828 118.536 35.7604 118.641 36.125C118.719 36.4375 118.875 36.776 119.109 37.1406C119.344 37.4792 119.695 37.7656 120.164 38C119.799 37.9479 119.409 37.9089 118.992 37.8828C118.602 37.8307 118.224 37.7917 117.859 37.7656C117.443 37.7396 117.026 37.7266 116.609 37.7266H115.203C114.76 37.7266 114.253 37.7396 113.68 37.7656C113.107 37.7656 112.482 37.7786 111.805 37.8047C112.169 37.6745 112.482 37.5052 112.742 37.2969C113.003 37.0625 113.224 36.8411 113.406 36.6328C113.615 36.3984 113.797 36.151 113.953 35.8906C114.057 35.6823 114.188 35.2917 114.344 34.7188C114.5 34.1198 114.643 33.4427 114.773 32.6875C114.904 31.9062 114.995 31.0859 115.047 30.2266C115.125 29.3672 115.138 28.5469 115.086 27.7656C115.06 26.9583 114.943 26.2422 114.734 25.6172C114.552 24.9922 114.266 24.5365 113.875 24.25C112.703 23.3646 111.635 22.9349 110.672 22.9609C109.734 22.9609 108.836 23.3385 107.977 24.0938C107.664 24.3802 107.365 24.6667 107.078 24.9531C106.818 25.2135 106.531 25.526 106.219 25.8906C105.906 26.2292 105.62 26.5807 105.359 26.9453C105.359 27.3359 105.372 27.7656 105.398 28.2344C105.424 28.7031 105.451 29.1589 105.477 29.6016C105.503 30.0964 105.542 30.5911 105.594 31.0859C105.646 31.8411 105.724 32.5833 105.828 33.3125C105.906 33.9375 106.01 34.6276 106.141 35.3828C106.271 36.112 106.44 36.776 106.648 37.375C106.31 37.3229 105.958 37.3099 105.594 37.3359C105.229 37.3359 104.878 37.3359 104.539 37.3359C104.148 37.362 103.771 37.375 103.406 37.375C103.068 37.401 102.716 37.4401 102.352 37.4922C102.039 37.5443 101.701 37.5964 101.336 37.6484C100.971 37.6745 100.62 37.7266 100.281 37.8047C100.594 37.2057 100.854 36.6198 101.062 36.0469C101.271 35.4479 101.44 34.9271 101.57 34.4844C101.727 33.9635 101.857 33.4557 101.961 32.9609C102.039 32.5703 102.091 31.8281 102.117 30.7344C102.169 29.6146 102.208 28.3385 102.234 26.9062C102.26 25.4479 102.273 23.9115 102.273 22.2969C102.273 20.6823 102.26 19.1458 102.234 17.6875C102.208 16.2292 102.156 14.9531 102.078 13.8594C102.026 12.7656 101.961 12.0104 101.883 11.5938C101.779 11.1771 101.635 10.7604 101.453 10.3438C101.297 9.97917 101.089 9.6276 100.828 9.28906C100.568 8.92448 100.242 8.625 99.8516 8.39062ZM122.312 20.5391L129.5 20.6172C129.083 22.2057 128.771 23.5599 128.562 24.6797C128.38 25.7995 128.263 26.737 128.211 27.4922C128.107 28.3516 128.081 29.0807 128.133 29.6797C128.211 30.2266 128.341 30.8125 128.523 31.4375C128.68 31.9583 128.914 32.5573 129.227 33.2344C129.539 33.9115 129.956 34.5885 130.477 35.2656C130.164 35.1615 129.826 35.0833 129.461 35.0312C129.096 34.9792 128.758 34.9401 128.445 34.9141C128.081 34.888 127.716 34.888 127.352 34.9141C126.987 34.9401 126.583 34.9792 126.141 35.0312C125.776 35.0833 125.333 35.1484 124.812 35.2266C124.292 35.3047 123.745 35.4089 123.172 35.5391C123.562 34.3672 123.862 33.3516 124.07 32.4922C124.305 31.6328 124.474 30.9167 124.578 30.3438C124.682 29.6667 124.747 29.1198 124.773 28.7031C124.773 28.1823 124.773 27.5964 124.773 26.9453C124.773 26.2682 124.773 25.6172 124.773 24.9922C124.773 24.3672 124.76 23.8203 124.734 23.3516C124.708 22.8568 124.656 22.5443 124.578 22.4141L124.188 22.0234C124.031 21.8932 123.797 21.7109 123.484 21.4766C123.198 21.2161 122.807 20.9036 122.312 20.5391ZM125.086 14.5234C125.633 14.237 126.18 14.1589 126.727 14.2891C127.299 14.4193 127.742 14.6667 128.055 15.0312C128.367 15.3958 128.471 15.8255 128.367 16.3203C128.289 16.8151 127.872 17.2969 127.117 17.7656C126.362 18.2083 125.698 18.3646 125.125 18.2344C124.552 18.1042 124.148 17.8307 123.914 17.4141C123.68 16.9974 123.641 16.5156 123.797 15.9688C123.953 15.3958 124.383 14.9141 125.086 14.5234Z" fill="#2A8D13"/>
<path d="M133.92 38V36.96H135.96V18.1H133.62V17.06H135.96V14.34C135.96 12.9667 136.127 11.7933 136.46 10.82C136.807 9.83333 137.32 9.08 138 8.56C138.693 8.04 139.547 7.78 140.56 7.78C141.653 7.78 142.493 8.25333 143.08 9.2C143.68 10.1333 143.98 11.32 143.98 12.76C143.98 13.3867 143.867 13.8733 143.64 14.22C143.427 14.5533 143.093 14.72 142.64 14.72C142.187 14.72 141.86 14.5667 141.66 14.26C141.46 13.94 141.36 13.5467 141.36 13.08C141.36 12.7067 141.42 12.4 141.54 12.16C141.673 11.9067 141.8 11.6667 141.92 11.44C142.053 11.2133 142.12 10.9533 142.12 10.66C142.12 10.0867 141.987 9.64 141.72 9.32C141.467 9 141.133 8.84 140.72 8.84C140.36 8.84 140.067 8.98 139.84 9.26C139.613 9.52667 139.433 9.90667 139.3 10.4C139.167 10.8933 139.073 11.48 139.02 12.16C138.98 12.84 138.96 13.5933 138.96 14.42V17.06H141.42V18.1H138.96V36.96H141.06V38H133.92ZM146.894 48.04C146.361 48.04 145.914 47.8333 145.554 47.42C145.194 47.0067 144.921 46.44 144.734 45.72C144.548 45.0133 144.454 44.2133 144.454 43.32C144.454 42.68 144.568 42.1867 144.794 41.84C145.021 41.5067 145.334 41.34 145.734 41.34C146.148 41.34 146.461 41.4933 146.674 41.8C146.888 42.12 146.994 42.5333 146.994 43.04C146.994 43.4267 146.928 43.7533 146.794 44.02C146.674 44.3 146.548 44.5667 146.414 44.82C146.281 45.0733 146.214 45.38 146.214 45.74C146.214 46.14 146.274 46.4733 146.394 46.74C146.528 47.02 146.721 47.16 146.974 47.16C147.174 47.16 147.334 47.0533 147.454 46.84C147.574 46.64 147.681 46.36 147.774 46C147.868 45.6533 147.954 45.2667 148.034 44.84L149.434 37.92L145.134 18.1H143.474V17.06H149.814V18.1H148.294L150.894 31.04L153.294 18.1H151.814V17.06H155.994V18.1H154.454L150.454 38.14L149.034 45.12C148.914 45.6933 148.768 46.2 148.594 46.64C148.421 47.08 148.194 47.42 147.914 47.66C147.648 47.9133 147.308 48.04 146.894 48.04Z" fill="#175D9B"/>
</svg>
